<?xml version="1.0" encoding="utf-8"?>
<!-- Generator: Adobe Illustrator 26.5.0, SVG Export Plug-In . SVG Version: 6.00 Build 0)  -->
<svg version="1.0" id="Слой_1" xmlns="http://www.w3.org/2000/svg" xmlns:xlink="http://www.w3.org/1999/xlink" x="0px" y="0px"
	 viewBox="0 0 800 800" style="enable-background:new 0 0 800 800;" xml:space="preserve">
<style type="text/css">
	.st0{fill:#FFFFFF;}
</style>
<path class="st0" d="M50.8,18.6c-15.8-5.3-32.9,3.3-38.2,19.1c-5.3,15.8,3.3,32.9,19.1,38.2l10.7,3.6c27.2,9.1,45.3,15.1,58.5,21.3
	c12.6,5.8,18,10.5,21.5,15.4c3.5,4.8,6.2,11.5,7.8,25.2c1.7,14.5,1.7,33.5,1.7,62.3v107.6c0,55.1,0,99.5,4.7,134.4
	c4.9,36.3,15.3,66.8,39.5,91c24.2,24.2,54.8,34.7,91,39.5c34.9,4.7,79.3,4.7,134.4,4.7h284.1c16.7,0,30.2-13.5,30.2-30.2
	c0-16.7-13.5-30.2-30.2-30.2H403.7c-57.8,0-98.1-0.1-128.6-4.2c-29.6-4-45.2-11.2-56.3-22.4c-9.5-9.5-16.1-22.2-20.4-43.9h407.5
	c38.6,0,58,0,73.1-10c15.1-10,22.7-27.7,38-63.3l17.3-40.3c32.6-76.1,48.9-114.1,31-141.3C747.3,168,706,168,623.2,168H192
	c-0.2-12.4-0.8-23.6-1.9-33.5c-2.2-19.5-7.1-37.4-18.8-53.7c-11.7-16.3-27.2-26.5-45-34.8C109.6,38.2,88.3,31.1,63,22.6L50.8,18.6z"
	/>
<path class="st0" d="M262.7,651.3c33.4,0,60.4,27,60.4,60.4c0,33.4-27,60.4-60.4,60.4s-60.4-27-60.4-60.4
	C202.3,678.4,229.3,651.3,262.7,651.3z"/>
<path class="st0" d="M625.2,651.3c33.4,0,60.4,27,60.4,60.4c0,33.4-27,60.4-60.4,60.4c-33.4,0-60.4-27-60.4-60.4
	C564.8,678.4,591.8,651.3,625.2,651.3z"/>
</svg>
