<svg xmlns="http://www.w3.org/2000/svg" xmlns:xlink="http://www.w3.org/1999/xlink" id="&#x421;&#x43B;&#x43E;&#x439;_1" x="0px" y="0px" viewBox="0 0 300 300" style="enable-background:new 0 0 300 300;" xml:space="preserve"><style type="text/css">	.st0{fill:#FFFFFF;}</style><g>	<path class="st0" d="M85.2,188.1c4.6,1.3,6.9-0.2,6.9-4.5c0.1-3.9-1.7-7.6-5.2-11.2c-2.4-2.4-5.7-4.9-10-7.3l-4.2-2.3V182l1.4,0.8  C79,185.7,82.7,187.5,85.2,188.1z"></path>	<path class="st0" d="M89.7,203.1c-2.8-2.8-6.8-5.6-11.9-8.6l-5.1-2.8v21l1.7,1c3.6,2.2,6.5,3.7,8.6,4.7c3.8,1.8,6.8,2.6,8.9,2.4  c2.8-0.1,4.1-1.9,4.1-5.2C96,211.3,93.9,207.1,89.7,203.1z"></path>	<path class="st0" d="M130.5,147.2l-101-58.3c-7.7-4.4-13.9-0.8-13.9,8v116.6c0,8.8,6.2,19.6,13.9,24l101,58.3  c7.7,4.4,13.9,0.8,13.9-8V171.2C144.4,162.4,138.2,151.6,130.5,147.2z M112.4,227c-0.6,6.8-3.1,10.4-7.7,10.9  c-3.7,0.5-9.5-1.2-17.3-5.2v15.9l-8.3-4.8v-15.7c-2.3-1.3-4.5-2.6-6.7-4V240l-8.3-4.8v-15.9l-16.7-9.8l1.7-10.4l3,1.7l3.1,1.8  c1,0.6,1.8,0.6,2.3,0.1c0.4-0.2,0.7-0.8,0.7-1.5V176v-18c-0.4-3-2-5.3-4.8-6.9c0.1,0-0.9-0.7-3-1.8l-3.1-1.7v-10.3L59,144l5.3,3.1  v-15.8l8.3,4.8v15.4l6.7,3.7v-15.3l8.3,4.8v15.8c6,4,10.6,8.1,13.8,12.2c3.8,4.9,6,10.1,6.5,15.7c0.6,7.9-1.8,11.8-7.2,11.9  c4.2,3.7,7.3,7.5,9.3,11.6C112,216.4,112.9,221.4,112.4,227z"></path></g><g>	<path class="st0" d="M127.4,69.5l11.8,6.8c3.3-1.7,6.6-3.5,10-5.5c3.6-2.1,7.1-4.2,10.2-6.2l-9.4-5.5l0,0l-2.3-1.3  c19.5-10.2,36.5-16.3,40.3-14.1c4.5,2.6-11,15.8-34.7,29.5s-46.5,22.6-51.1,20C98.4,91,109.3,81,127.4,69.5z"></path>	<path class="st0" d="M35.1,63.3L136.1,5c7.7-4.4,20.1-4.4,27.7,0l101,58.3c7.7,4.4,7.7,11.6,0,16l-101,58.3  c-7.7,4.4-20.1,4.4-27.7,0l-101-58.3C27.5,74.9,27.5,67.7,35.1,63.3z M149.9,82.5l34.9,20.1L205,91l-34.9-20.1  c20.4-13.2,31.6-25.5,25.5-29c-6-3.5-27.3,3-50.2,14.7l-9.8-5.6l27.7-16L143,23.4L67.7,66.8L88,78.5l27.5-15.9l9.7,5.6  c-20.9,13.4-32.4,25.9-26.3,29.5C105,101.2,126.7,94.6,149.9,82.5z"></path></g><path class="st0" d="M270.5,89.5l-101,58.3c-7.7,4.4-13.9,15.2-13.9,24v116.6c0,8.8,6.2,12.4,13.9,8l101-58.3 c7.7-4.4,13.9-15.2,13.9-24V97.5C284.3,88.6,278.1,85.1,270.5,89.5z M220.8,140.5l26.9,36.1l-26.9,1.9V140.5z M219.1,246.7 L191.9,218l27.2,2.7L219.1,246.7L219.1,246.7z M219.1,214.2l-27.4-2.7l27.4-29.7V214.2z M219.1,179.5l-26.5,28.7l26.5-66.8V179.5z  M220.8,245.7v-26.1l27.2-34.1L220.8,245.7z M220.8,213.1v-32.4l27.4-2L220.8,213.1z"></path></svg>