<?xml version="1.0" encoding="utf-8"?>
<!-- Generator: Adobe Illustrator 26.5.0, SVG Export Plug-In . SVG Version: 6.00 Build 0)  -->
<svg version="1.1" id="Слой_1" xmlns="http://www.w3.org/2000/svg" xmlns:xlink="http://www.w3.org/1999/xlink" x="0px" y="0px"
	 viewBox="0 0 800 800" style="enable-background:new 0 0 800 800;" xml:space="preserve">
<style type="text/css">
	.st0{fill:#4D5668;}
</style>
<path class="st0" d="M538.9,200c-3.1,0-5.6,2.5-5.6,5.6v55.6c0,3.1,2.5,5.6,5.6,5.6h55.6c3.1,0,5.6-2.5,5.6-5.6v-55.6
	c0-3.1-2.5-5.6-5.6-5.6H538.9z M533.3,600v-16.7c0-9.2,7.5-16.7,16.7-16.7c9.2,0,16.7,7.5,16.7,16.7V600H600v-16.7
	c0-9.2,7.5-16.7,16.7-16.7c9.2,0,16.7,7.5,16.7,16.7v33.3c0,9.2-7.5,16.7-16.7,16.7H483.3c-9.2,0-16.7-7.5-16.7-16.7v-33.3
	c0-9.2,7.5-16.7,16.7-16.7s16.7,7.5,16.7,16.7V600H533.3L533.3,600z M433.3,366.7H450c9.2,0,16.7,7.5,16.7,16.7S459.2,400,450,400
	h-66.7c-9.2,0-16.7-7.5-16.7-16.7s7.5-16.7,16.7-16.7H400v-33.3h-50c-9.2,0-16.7-7.5-16.7-16.7S340.8,300,350,300h100
	c9.2,0,16.7,7.5,16.7,16.7s-7.5,16.7-16.7,16.7h-16.7V366.7z M600,400h-16.7c-9.2,0-16.7-7.5-16.7-16.7s7.5-16.7,16.7-16.7H600V350
	c0-9.2,7.5-16.7,16.7-16.7c9.2,0,16.7,7.5,16.7,16.7v66.7c0,9.2-7.5,16.7-16.7,16.7c-9.2,0-16.7-7.5-16.7-16.7V400z M433.3,466.7
	h-16.7c-9.2,0-16.7-7.5-16.7-16.7c0-9.2,7.5-16.7,16.7-16.7H450c9.2,0,16.7,7.5,16.7,16.7v66.7c0,9.2-7.5,16.7-16.7,16.7H350
	c-9.2,0-16.7-7.5-16.7-16.7c0-9.2,7.5-16.7,16.7-16.7h83.3V466.7L433.3,466.7z M538.9,166.7h55.6c21.5,0,38.9,17.4,38.9,38.9v55.6
	c0,21.5-17.4,38.9-38.9,38.9h-55.6c-21.5,0-38.9-17.4-38.9-38.9v-55.6C500,184.1,517.4,166.7,538.9,166.7z M205.6,166.7h55.6
	c21.5,0,38.9,17.4,38.9,38.9v55.6c0,21.5-17.4,38.9-38.9,38.9h-55.6c-21.5,0-38.9-17.4-38.9-38.9v-55.6
	C166.7,184.1,184.1,166.7,205.6,166.7z M205.6,200c-3.1,0-5.6,2.5-5.6,5.6v55.6c0,3.1,2.5,5.6,5.6,5.6h55.6c3.1,0,5.6-2.5,5.6-5.6
	v-55.6c0-3.1-2.5-5.6-5.6-5.6H205.6z M205.6,500h55.6c21.5,0,38.9,17.4,38.9,38.9v55.6c0,21.5-17.4,38.9-38.9,38.9h-55.6
	c-21.5,0-38.9-17.4-38.9-38.9v-55.6C166.7,517.4,184.1,500,205.6,500z M205.6,533.3c-3.1,0-5.6,2.5-5.6,5.6v55.6
	c0,3.1,2.5,5.6,5.6,5.6h55.6c3.1,0,5.6-2.5,5.6-5.6v-55.6c0-3.1-2.5-5.6-5.6-5.6H205.6z M433.3,200H350c-9.2,0-16.7-7.5-16.7-16.7
	s7.5-16.7,16.7-16.7h100c9.2,0,16.7,7.5,16.7,16.7V250c0,9.2-7.5,16.7-16.7,16.7c-9.2,0-16.7-7.5-16.7-16.7V200z M350,266.7
	c-9.2,0-16.7-7.5-16.7-16.7c0-9.2,7.5-16.7,16.7-16.7h33.3c9.2,0,16.7,7.5,16.7,16.7c0,9.2-7.5,16.7-16.7,16.7H350z M183.3,466.7
	c-9.2,0-16.7-7.5-16.7-16.7c0-9.2,7.5-16.7,16.7-16.7H250c9.2,0,16.7,7.5,16.7,16.7c0,9.2-7.5,16.7-16.7,16.7H183.3z M316.7,466.7
	c-9.2,0-16.7-7.5-16.7-16.7c0-9.2,7.5-16.7,16.7-16.7H350c9.2,0,16.7,7.5,16.7,16.7c0,9.2-7.5,16.7-16.7,16.7H316.7z M366.7,600
	v16.7c0,9.2-7.5,16.7-16.7,16.7c-9.2,0-16.7-7.5-16.7-16.7v-33.3c0-9.2,7.5-16.7,16.7-16.7h66.7c9.2,0,16.7,7.5,16.7,16.7
	s-7.5,16.7-16.7,16.7H366.7z M300,366.7h16.7c9.2,0,16.7,7.5,16.7,16.7s-7.5,16.7-16.7,16.7h-33.3c-9.2,0-16.7-7.5-16.7-16.7v-16.7
	H250c-9.2,0-16.7-7.5-16.7-16.7c0-9.2,7.5-16.7,16.7-16.7h33.3c9.2,0,16.7,7.5,16.7,16.7V366.7z M166.7,350
	c0-9.2,7.5-16.7,16.7-16.7S200,340.8,200,350v33.3c0,9.2-7.5,16.7-16.7,16.7s-16.7-7.5-16.7-16.7V350z M500,350
	c0-9.2,7.5-16.7,16.7-16.7c9.2,0,16.7,7.5,16.7,16.7v66.7c0,9.2-7.5,16.7-16.7,16.7c-9.2,0-16.7-7.5-16.7-16.7V350z M566.7,500
	v-16.7c0-9.2,7.5-16.7,16.7-16.7h33.3c9.2,0,16.7,7.5,16.7,16.7s-7.5,16.7-16.7,16.7H600v16.7c0,9.2-7.5,16.7-16.7,16.7h-66.7
	c-9.2,0-16.7-7.5-16.7-16.7v-33.3c0-9.2,7.5-16.7,16.7-16.7c9.2,0,16.7,7.5,16.7,16.7V500H566.7z M100,216.7
	c0,9.2-7.5,16.7-16.7,16.7s-16.7-7.5-16.7-16.7V150c0-46,37.3-83.3,83.3-83.3h66.7c9.2,0,16.7,7.5,16.7,16.7s-7.5,16.7-16.7,16.7
	H150c-27.6,0-50,22.4-50,50V216.7z M583.3,100c-9.2,0-16.7-7.5-16.7-16.7s7.5-16.7,16.7-16.7H650c46,0,83.3,37.3,83.3,83.3v66.7
	c0,9.2-7.5,16.7-16.7,16.7c-9.2,0-16.7-7.5-16.7-16.7V150c0-27.6-22.4-50-50-50H583.3z M216.7,700c9.2,0,16.7,7.5,16.7,16.7
	c0,9.2-7.5,16.7-16.7,16.7H150c-46,0-83.3-37.3-83.3-83.3v-66.7c0-9.2,7.5-16.7,16.7-16.7s16.7,7.5,16.7,16.7V650
	c0,27.6,22.4,50,50,50H216.7z M700,583.3c0-9.2,7.5-16.7,16.7-16.7c9.2,0,16.7,7.5,16.7,16.7V650c0,46-37.3,83.3-83.3,83.3h-66.7
	c-9.2,0-16.7-7.5-16.7-16.7c0-9.2,7.5-16.7,16.7-16.7H650c27.6,0,50-22.4,50-50V583.3z"/>
</svg>
