<?xml version="1.0" encoding="utf-8"?>
<!-- Generator: Adobe Illustrator 26.5.0, SVG Export Plug-In . SVG Version: 6.00 Build 0)  -->
<svg version="1.1" id="Слой_1" xmlns="http://www.w3.org/2000/svg" xmlns:xlink="http://www.w3.org/1999/xlink" x="0px" y="0px"
	 viewBox="0 0 120 120" style="enable-background:new 0 0 120 120;" xml:space="preserve">
<style type="text/css">
	.st0{clip-path:url(#SVGID_00000077309588148060127730000014005243733526305451_);}
	.st1{fill:none;stroke:url(#SVGID_00000166643506117755428690000000100843412324271770_);stroke-width:0.75;stroke-miterlimit:10;}
</style>
<g>
	<defs>
		<circle id="SVGID_1_" cx="60" cy="60" r="59.3"/>
	</defs>
	<clipPath id="SVGID_00000033356951857577673860000007945972069350096805_">
		<use xlink:href="#SVGID_1_"  style="overflow:visible;"/>
	</clipPath>
	<g style="clip-path:url(#SVGID_00000033356951857577673860000007945972069350096805_);">
		<g>
			
				<linearGradient id="SVGID_00000029750143957261054330000006351513837362275228_" gradientUnits="userSpaceOnUse" x1="-41.3364" y1="58.4577" x2="162.4392" y2="58.4577">
				<stop  offset="7.991684e-08" style="stop-color:#6DFFAB"/>
				<stop  offset="1" style="stop-color:#3AC0C0"/>
			</linearGradient>
			
				<path style="fill:none;stroke:url(#SVGID_00000029750143957261054330000006351513837362275228_);stroke-width:0.75;stroke-miterlimit:10;" d="
				M-40.8-9.2C-36,1-22.4,12.8-23.4,24.9c-1.1,13.1-16.2,22-17.5,35.4C-42,72.7-33.7,85-33.4,97.2c0.3,10.8-5.2,22.3-7.4,32.8
				 M-37.8-9.2C-33,0.9-19.6,12.6-20.5,24.7c-1.1,13.1-16.3,22-17.6,35.5c-1.2,12.4,7.3,24.5,7.6,36.7c0.3,10.8-5.3,22.4-7.5,32.8
				 M-34.8-9.2c4.7,10,18,21.5,17,33.4c-1.1,13.2-16.5,22.1-17.7,35.7c-1.1,12.4,7.7,24.3,8.1,36.6c0.4,10.8-5.5,22.5-7.7,32.9
				 M-31.9-9.2c4.6,9.8,17.5,20.9,16.5,32.6c-1.1,13.3-16.8,22.2-18,35.9c-1.1,12.5,8.2,24.1,8.7,36.4c0.4,10.8-5.6,22.6-7.9,33
				 M-28.9-9.2c4.4,9.4,17,20.4,15.9,31.6c-1.4,13.5-17.2,22.3-18.4,36.2c-1,12.5,8.8,23.9,9.4,36.2c0.5,10.7-5.8,22.9-8.2,33.1
				 M-25.9-9.2c4.3,9.3,16.2,19.5,15.1,30.5c-1.4,13.6-17.8,22.5-18.8,36.6c-0.9,12.6,9.5,23.6,10.3,35.9
				c0.7,10.6-6.1,23.1-8.5,33.2 M-22.9-9.2C-18.8-0.1-7.5,9.3-8.6,20c-1.3,13.8-18.3,22.7-19.2,37c-0.8,12.6,10.3,23.3,11.2,35.6
				c0.8,10.5-6.3,23.4-8.8,33.4 M-19.9-9.2C-15.9-0.3-5.5,8.3-6.4,18.7c-1.3,13.9-18.9,23-19.7,37.4c-0.7,12.7,11.2,23,12.3,35.3
				c0.9,10.4-6.6,23.7-9.1,33.5 M-16.9-9.2C-14.3,1.2-3.4,6.1-4.4,17.3c-1.2,14-19.6,23.2-20.2,37.8c-0.5,12.7,12,22.7,13.3,35
				c1.1,10.3-6.9,24-9.5,33.7 M-13.9-9.2C-11.6,1-1.4,5-2.3,15.9c-1.2,14.2-20.2,23.5-20.7,38.2C-23.3,67-10,76.5-8.6,88.8
				c1.2,10.1-7.2,24.4-9.8,33.8 M-10.9-9.2C-8.9,0.8,0.6,3.9-0.2,14.6C-1.2,28.9-21,38.4-21.3,53.2c-0.3,12.9,13.7,22,15.4,34.4
				c1.3,10-7.5,24.7-10.2,34 M-7.9-9.2C-6.2,0.6,2.7,3,2,13.4c-1,14.4-21.4,24-21.6,39c-0.1,13,14.7,21.6,16.3,34.1
				c1.3,10.1-7.8,24.8-10.5,34.1 M-4.9-9.2c1.3,9.6,9.8,11.3,9.2,21.4c-0.9,14.5-22,24.2-22,39.3c0,13.2,15.4,21.3,17.2,33.8
				c1.4,10-8,25-10.8,34.3 M-1.9-9.2c2,10.8,10.7,11.9,7.3,24c-3.9,14-18.7,21-19.5,35.9C-14.8,64-2,69.8,1.2,81.4
				c3.3,11.9-6.5,26.6-10,37.5 M1.1-9.2C2.9,1.4,11.3,2.1,7.9,14c-4,14-19,21.1-19.7,36.1C-12.5,63.6,0.7,69,4,80.7
				c3.4,11.8-6.6,26.8-10.2,37.6 M4.1-9.2c1.6,10.5,9.8,10.9,6.4,22.7C6.5,27.6-8.7,34.7-9.4,49.8C-10,63.3,3.5,68.5,6.9,80.2
				c3.5,11.8-6.8,26.9-10.3,37.6 M7.1-9.2c1.5,10.4,9.6,10.8,6.3,22.5C9.4,27.4-6,34.5-6.6,49.6C-7.2,63.3,6.4,68.3,9.9,80
				c3.5,11.7-6.9,27-10.4,37.7 M10.1-9.2c1.6,10.2,9.3,11.3,6,22.8c-4,14-18.9,21.2-19.6,36.1C-3.9,63.2,9.2,68.4,12.6,80
				c3.4,11.8-6.6,27-10.1,37.7 M13.3-9c1.6,10,8.5,12.6,5.5,23.5C14.9,28.2,0.8,35.5,0.2,50.1c-0.6,13.1,11.7,18.7,14.9,30.1
				c3.3,11.7-5.9,26.9-9.2,37.7 M16.5-8.7C18,1,23.9,5.6,21.1,16C17.4,29.3,4.7,36.6,4,50.7C3.4,63.2,14.5,69.4,17.5,80.5
				c3.1,11.6-5,26.7-8,37.6 M19.7-8.3C21,1.2,25.9,8,23.3,17.8C19.9,30.6,8.7,38.1,8,51.5c-0.6,11.9,9,18.7,11.6,29.4
				c2.8,11.5-3.9,26.5-6.4,37.5 M23.1-7.8c1,9.4,4.7,18.3,2.3,27.8c-3,12.1-12.6,19.8-13.2,32.4c-0.6,11.1,7.3,18.6,9.5,28.9
				c2.4,11.4-2.7,26.2-4.5,37.3 M26.4-7.2c0.6,9.6,3.2,20.1,1,29.7c-2.6,11.4-10.3,19.3-11,31.1C15.9,64,21.9,72.1,23.6,82
				c2,11.5-1.3,25.8-2.5,37.2 M29.8-6.6c0.2,10.1,1.5,21.7-0.5,31.8c-2.1,10.6-7.9,18.8-8.5,29.6c-0.6,9.7,3.5,18.4,4.7,27.8
				c1.5,11.8,0.1,25.2-0.2,37 M33.2-6c-0.9,21.3-6.7,41.3-8,62.1c-1.3,20.8,3.1,43.2,4.2,64 M36.6-5.4c-4.2,43.5-8.8,82.3-3.1,125.9
				 M40-4.8c-3,21.4-4.5,41.9-6,63.4c-1.6,23.2-1.2,39.5,3.6,62.4 M43.4-4.2C41,9.3,36.8,22.4,37.1,36.1c0.2,7.9,1.9,15.7,1.4,23.6
				c-0.6,8.8-4.7,16.8-5.5,25.4c-1.1,12.5,5.5,24.5,8.8,36.2 M46.8-3.7c-2.8,13.7-8.9,28-7.7,42.2c0.7,7.9,4,14.4,3.6,22.3
				C42.2,70,36.1,77,34.9,85.7c-1.7,12.3,6.9,24.8,10.8,36.1 M50.1-3.2C46.9,10.4,39,26.3,41.2,40.6c1.2,8,5.8,12.9,5.5,21.2
				c-0.4,9.6-8.2,15.6-9.8,24.4c-2.1,12.2,8.2,25.2,12.6,35.9 M53.3-2.8C50,10.6,40.4,28.1,43.5,42.3c1.8,8.2,7.4,11.6,7.2,20.2
				c-0.2,10.2-9.2,15-11.5,24.1c-3,11.6,9.6,26.1,14.1,35.8 M56.5-2.6c-3.4,13.1-14.3,32.1-10.6,46.2c2.2,8.5,8.6,10.4,8.5,19.4
				c-0.1,10.6-10.3,14.7-12.9,23.8c-3.3,11.5,10.6,26.3,15.2,35.8 M59.6-2.4c-3.4,12.9-15.1,32.8-11.1,46.8c2.5,8.7,9.3,9.6,9.4,19
				c0.1,10.9-11,14.4-13.8,23.7c-3.4,11.4,11.2,26.5,15.9,35.8 M62.6-2.4c-3.4,12.8-15.2,32.9-11.1,46.8c2.6,8.7,9.6,9.5,9.6,19
				C61.1,74.3,49.8,77.7,47,87c-3.4,11.4,11.4,26.5,16,35.7 M65.5-2.6c-3.3,12.8-14.5,32.5-10.7,46.2c2.4,8.7,9.5,10,9.6,19.4
				c0,11.1-11.4,14.5-14.2,24c-3.4,11.3,11.3,26.4,15.9,35.6 M68.3-2.8c-3.1,12.7-13.4,31.7-9.8,45.3c2.3,8.8,9.5,10.7,9.4,20.1
				C67.8,73.8,56.2,77.4,53.4,87c-3.3,11.3,11,26.2,15.5,35.4 M71-3.2c-2.9,12.7-12,30.6-8.7,44.1c2.2,8.9,9.4,11.5,9.2,21
				c-0.2,11.5-12,15.2-14.9,25c-3.3,11.3,10.5,25.9,15,35.2 M73.7-3.7c-2.5,12.6-10.3,29.4-7.3,42.6c2.1,9.1,9.3,12.5,9,22.1
				c-0.4,11.7-12.4,15.7-15.3,25.8c-3.3,11.3,9.9,25.6,14.3,35 M76.4-4.2c-2,12.4-8.4,28.1-5.6,40.8c2,9.3,9.2,13.6,8.7,23.4
				c-0.6,12-12.7,16.2-15.8,26.6c-3.3,11.3,9.2,25.2,13.5,34.7 M79-4.8c-1.5,12.1-6.3,26.7-3.8,39c1.9,9.6,9.1,14.8,8.4,24.8
				c-0.8,12.3-13.2,16.8-16.3,27.6C63.9,97.9,75.8,111.2,80,121 M81.6-5.4c-0.9,11.5-4.5,25.5-1.9,37c2.1,9.7,8.9,16.1,8.1,26.2
				c-1,12.6-13.6,17.5-16.9,28.5c-3.4,11.4,7.8,24.2,11.8,34.1 M84.2-6c-0.2,11.1-2.3,24,0,35c2.1,10.2,8.4,17.2,7.8,27.7
				c-0.7,13.1-14,18.1-17.4,29.5c-3.5,11.4,7,23.8,10.9,33.8 M86.8-6.6c0.5,10.6-0.2,22.5,1.9,33c2.1,10.5,8.3,18.4,7.5,29.2
				c-0.9,13.5-14.4,18.8-18,30.5c-3.5,11.4,6.3,23.4,10,33.5 M89.4-7.2c0.8,10.1,1.8,21.2,3.7,31.1c2.1,10.8,8.1,19.5,7.2,30.6
				c-1.1,13.8-14.8,19.4-18.6,31.5c-3.5,11.4,5.6,22.9,9.1,33.2 M92-7.8c2.6,19.7,14.1,41.7,12.4,61.2c-1.2,14.1-15.1,20-19.1,32.3
				c-3.6,11.3,5,22.6,8.3,33 M94.7-8.3c3.3,19.7,15.6,40.6,13.7,60.8C107,66.9,92.9,73,88.8,85.7c-3.6,11.3,4.5,22.3,7.6,32.7
				 M97.4-8.7c3.9,19.7,16.8,39.4,14.7,60.5c-1.5,14.6-15.8,20.9-19.9,33.8c-3.6,11.2,4,22,7,32.5 M100.2-9
				c2.1,9.6,7.3,15.5,9.1,25.4c2.1,11.5,7.6,23,6.4,34.8c-1.5,14.8-16,21.2-20.2,34.3c-3.6,11.1,3.7,21.9,6.6,32.3 M103.1-9.2
				c2.1,9.7,7.9,14.6,9.7,24.7c2.1,11.6,7.5,23.4,6.3,35.4c-1.6,14.9-16.2,21.4-20.4,34.6c-3.5,11,3.6,21.8,6.4,32.2 M106-9.2
				c2,9.7,8.1,14.2,9.9,24.4c2,11.7,7.5,23.6,6.2,35.6c-1.6,14.9-16.3,21.5-20.5,34.8c-3.5,10.9,3.5,21.8,6.3,32.1 M108.9-9.3
				C111,0.6,117.2,5,119,15.4c2,11.6,7.1,23.7,5.8,35.5c-1.6,14.7-15.7,21.5-19.9,34.6c-3.4,10.9,3.3,21.9,6,32.3 M111.6-9.4
				c2.3,10.2,8.6,14.6,10.4,25.2c1.9,11.5,6.6,23.7,5.3,35.4c-1.6,14.3-14.9,21.5-18.9,34.4c-3.3,10.9,2.9,22.2,5.5,32.6 M114.2-9.6
				c1.4,8.6,7.9,14.1,10.3,22.6c2.9,10.3,7.4,27.7,6.1,38.7c-1.8,14.6-17.5,23.2-19.9,37.4c-1.7,9.8,5,20.2,6,29.7 M116.7-9.8
				c1.7,9.2,8.4,14.5,10.8,23.7c2.7,10.4,6.4,27.4,5,38.5c-1.7,14.2-15.7,23.2-18,36.9c-1.7,9.7,4.2,20.9,5.2,30.3 M119.1-10.1
				c2,9.9,9,15,11.4,24.9c2.5,10.6,5.1,27.1,3.8,38.3c-1.6,13.7-13.6,23.1-15.8,36.4c-1.5,8.9,2.9,22.3,4.1,31.1 M121.4-10.4
				c2.3,10.5,9.8,15.7,12,26.3c2.2,10.8,3.7,26.7,2.4,38c-1.4,13.1-11.4,23-13.4,35.8c-1.5,9.3,2.1,22.6,3,31.9 M123.7-10.7
				c2.6,11.1,10.6,16.5,12.6,27.7c2,11.1,2.1,26.3,1,37.7c-1.3,12.6-9.1,22.8-10.9,35.2c-1.4,9.8,1.2,22.9,1.8,32.7 M125.9-11.1
				c4.4,10.7,11.6,17.8,13.3,29.2c1.7,11.3,0.6,25.8-0.5,37.5c-1.1,12.1-6.8,22.6-8.2,34.6c-1.3,10.5,0.4,23.1,0.5,33.6 M128.2-11.4
				c4.6,11,12.5,18.8,13.9,30.7c1.4,11.5-1,25.4-2,37.2c-1.9,23.1-5.8,45.1-6.3,68.5 M130.4-11.8c4.7,11.3,13.5,19.9,14.6,32.2
				c1.1,11.7-2.6,25-3.4,36.9c-1.7,22.9-3.7,45.7-4.9,68.7 M132.7-12.1c4.8,11.4,14.5,20.9,15.2,33.6c0.6,12-4.1,24.5-4.8,36.6
				c-1.4,23-1.7,45.9-3.7,68.9 M135.1-12.4c5.5,13.7,15.1,22.8,15.2,37.7c0.1,11.1-4.6,22.1-5.1,33.3c-1.1,23.7-0.4,45.6-2.9,69.3
				 M137.6-12.6c5.6,13.9,15.8,23.6,15.6,38.8c-0.1,11.2-5.6,21.8-6,33.1c-0.4,11.6,3.4,22.9,3.2,34.5c-0.2,11.6-3.7,23.5-5.2,35
				 M140.2-12.8c5.7,14.1,16.3,24.2,15.9,39.6c-0.3,11.3-6.5,21.6-6.7,33c-0.2,11.6,4.7,22.6,4.7,34.1c0,11.7-4.3,23.9-5.9,35.5
				 M142.9-12.9c5.7,14.2,16.7,24.7,16.2,40.2c-0.4,11.3-7.1,21.4-7.3,32.9c-0.1,11.6,5.8,22.3,5.7,33.9
				c-0.1,11.9-4.7,24.1-6.4,35.8 M145.8-13c5.7,14.2,16.9,24.9,16.3,40.4c-0.5,11.4-7.5,21.3-7.6,32.8c-0.1,11.7,6.3,22.1,6.2,33.7
				c0,12-4.9,24.2-6.7,36"/>
		</g>
	</g>
</g>
</svg>
