<?xml version="1.0" encoding="utf-8"?>
<!-- Generator: Adobe Illustrator 26.5.0, SVG Export Plug-In . SVG Version: 6.00 Build 0)  -->
<svg version="1.1" id="Слой_1" xmlns="http://www.w3.org/2000/svg" xmlns:xlink="http://www.w3.org/1999/xlink" x="0px" y="0px"
	 viewBox="0 0 200 140" style="enable-background:new 0 0 200 140;" xml:space="preserve">
<style type="text/css">
	.st0{fill:#FFFFFF;}
	.st1{fill:#152B31;}
	.st2{fill:#405C63;}
</style>
<g id="OBJECT">
	<path class="st0" d="M187.6,99.2l-15.2-22.3l-3.6-5.3l-0.4-2.4l2.9-3.8c0.8-1,1.1-2.3,0.9-3.5l-1.7-9.2l14.9-0.6
		c4.2-0.2,6.8-4.2,4.8-7.6l-10.7-18.1l2.9,16.2h-13.7l-0.1-0.6l-19.2-26.2c-2-2.7-4.8-4.8-8.2-6l-24.2-8.5
		c-5.5-1.9-11.6-1.2-16.4,1.8C88,10.9,62.8,26.6,44,35.9v0c-2.3,1-15.1,6.1-9.4-1.9c4.8-6.7,14.9-13.9-5.6-8.3l-7.8,1.9
		c0,0,5.5,4,9.1-1.6c2-0.6,5.8-1.6,7.3-1c2,0.8-7.8,5.9-9.8,12.9c-1.5,5.3,3,7.9,10.8,6.4L15.1,80.5L4.2,103l1.6,6.5h12.7l-6.2-7.5
		l7.9-10.7l13.4-2.1c0,0,13.5-10,16.6-10.2c3.5-0.2,6.7-0.3,6.7-0.3V88L76,109.6h13.6c-2.1-5-10.6-8.1-10.6-8.1l-7.4-14.6l4.9-8.9
		l17.6,3.7l4,20.3l2.2,7.7h12.7l-6.5-8.5l2.4-16.8l14.7-7.5l5.4-17l-0.3,6.5c-0.1,2.3,1.4,4.3,3.7,5.2l15.2,5.9l-1.1,5.7
		c-0.3,1.4,0.3,2.9,1.5,3.9l3.4,2.7c0.9,0.7,2,1.1,3.2,1.1h10.7c1.1,0,2-0.6,2.5-1.4l2.6-4.8l0.3,8.7l10.9,8.8l1.2,7.7h13.3
		L187.6,99.2z"/>
	<path class="st1" d="M147.3,68.7l-7-8.9v4.5c0,1,0.5,2,1.5,2.6l1.7,1.1c0.7,0.4,1.5,0.7,2.3,0.7H147.3z"/>
	<path class="st1" d="M135.7,42.5h-15.5l2.9-16.2l-10.7,18.1c-2,3.3,0.6,7.4,4.8,7.6l23.2,1C140.3,52.9,142.1,46.7,135.7,42.5z"/>
	<polygon class="st0" points="76.5,77.9 73.7,82.9 56.8,80.6 56.8,78.8 	"/>
	<polygon class="st0" points="172.4,76.8 170.5,93.1 170.2,84.4 168.8,71.5 	"/>
	<polygon class="st0" points="170.4,52.6 168.5,42.5 170.6,42.5 171.6,52.5 	"/>
	<polygon class="st2" points="120.2,42.5 117.3,42.5 123.1,26.3 	"/>
	<polygon class="st0" points="182.3,42.5 185.1,42.5 179.4,26.3 	"/>
</g>
<g>
	<path class="st0" d="M16.5,117.9c1.3,0.5,2.3,1.2,3,2.2c0.7,0.9,1.1,2.1,1.1,3.3c0,1.3-0.4,2.4-1.1,3.3c-0.7,0.9-1.7,1.7-3,2.2
		c-1.3,0.5-2.8,0.8-4.6,0.8h-4v4.8H3.2v-17.3h8.7C13.7,117.1,15.2,117.3,16.5,117.9z M14.8,125.6c0.7-0.5,1.1-1.3,1.1-2.2
		c0-1-0.4-1.7-1.1-2.2c-0.7-0.5-1.8-0.8-3.2-0.8H7.8v6h3.8C13,126.4,14.1,126.1,14.8,125.6z"/>
	<path class="st0" d="M38.3,134.4l-3.9-4.8h-0.2h-4v4.8h-4.6v-17.3h8.7c1.8,0,3.3,0.3,4.6,0.8c1.3,0.5,2.3,1.2,3,2.2
		c0.7,0.9,1.1,2.1,1.1,3.3c0,1.3-0.4,2.4-1.1,3.3c-0.7,0.9-1.7,1.6-3,2.1l4.5,5.6H38.3z M37.2,121.1c-0.7-0.5-1.8-0.8-3.2-0.8h-3.8
		v6H34c1.4,0,2.5-0.3,3.2-0.8c0.7-0.5,1.1-1.3,1.1-2.2C38.3,122.4,37.9,121.7,37.2,121.1z"/>
	<path class="st0" d="M52.4,133.5c-1.7-0.8-3-1.8-3.9-3.2c-0.9-1.4-1.4-2.9-1.4-4.6s0.5-3.2,1.4-4.6c0.9-1.4,2.3-2.4,3.9-3.2
		c1.7-0.8,3.5-1.2,5.6-1.2c2.1,0,3.9,0.4,5.6,1.2c1.7,0.8,3,1.8,3.9,3.2c1,1.4,1.4,2.9,1.4,4.6s-0.5,3.2-1.4,4.6
		c-1,1.4-2.3,2.4-3.9,3.2c-1.7,0.8-3.5,1.2-5.6,1.2C55.9,134.7,54.1,134.3,52.4,133.5z M61.2,130.6c1-0.5,1.7-1.1,2.2-2
		c0.5-0.8,0.8-1.8,0.8-2.9c0-1.1-0.3-2-0.8-2.9c-0.5-0.8-1.3-1.5-2.2-2c-1-0.5-2-0.7-3.2-0.7c-1.2,0-2.3,0.2-3.2,0.7
		c-1,0.5-1.7,1.1-2.2,2c-0.5,0.8-0.8,1.8-0.8,2.9c0,1.1,0.3,2,0.8,2.9c0.5,0.8,1.3,1.5,2.2,2c1,0.5,2,0.7,3.2,0.7
		C59.2,131.3,60.3,131,61.2,130.6z"/>
	<path class="st0" d="M78.8,120.3v4.6h9.3v3.2h-9.3v6.3h-4.6v-17.3h15.1v3.2H78.8z"/>
	<path class="st0" d="M94.2,117.1h4.6v17.3h-4.6V117.1z"/>
	<path class="st0" d="M109.4,120.4H103v-3.3h17.5v3.3h-6.4v14h-4.6V120.4z"/>
	<path class="st0" d="M154.6,117.1l-6.6,17.3h-5l-4.4-11.7l-4.5,11.7h-5l-6.6-17.3h4.8l4.5,12.2l4.7-12.2h4.3l4.6,12.3l4.7-12.3
		H154.6z"/>
	<path class="st0" d="M171.4,130.7h-9.3l-1.8,3.7h-4.7l8.9-17.3h4.6l9,17.3h-4.9L171.4,130.7z M169.9,127.6l-3.2-6.6l-3.2,6.6H169.9
		z"/>
	<path class="st0" d="M190.2,128.3v6.1h-4.6v-6.2l-7.8-11.1h4.9l5.3,7.7l5.4-7.7h4.5L190.2,128.3z"/>
</g>
</svg>
