<?xml version="1.0" encoding="utf-8"?>
<!-- Generator: Adobe Illustrator 26.5.0, SVG Export Plug-In . SVG Version: 6.00 Build 0)  -->
<svg version="1.1" id="Слой_1" xmlns="http://www.w3.org/2000/svg" xmlns:xlink="http://www.w3.org/1999/xlink" x="0px" y="0px"
	 viewBox="0 0 120 60" style="enable-background:new 0 0 120 60;" xml:space="preserve">
<style type="text/css">
	.st0{fill:#FFFFFF;}
</style>
<polygon class="st0" points="119.6,7 101.3,17.9 104,19.5 87,43.9 69.9,19 53.9,19 36.3,43.7 19.5,19 1.6,19 26.1,54.2 44.6,54.2 
	61.5,30.4 77.9,54.2 96.5,54.2 115.8,26.3 118.8,28.1 "/>
<g>
	<path class="st0" d="M8.9,7.9c0.7,0.2,1.2,0.6,1.6,1c0.4,0.4,0.6,1,0.6,1.6c0,0.6-0.2,1.1-0.6,1.6c-0.4,0.4-0.9,0.8-1.6,1
		c-0.7,0.2-1.5,0.4-2.5,0.4H4.2v2.3H1.7V7.5h4.7C7.3,7.5,8.2,7.6,8.9,7.9z M8,11.5c0.4-0.2,0.6-0.6,0.6-1C8.5,10,8.3,9.7,8,9.4
		C7.6,9.2,7,9,6.2,9h-2v2.8h2C7,11.9,7.6,11.8,8,11.5z"/>
	<path class="st0" d="M20.3,15.7l-2.1-2.3h-0.1h-2.2v2.3h-2.5V7.5h4.7c1,0,1.8,0.1,2.5,0.4s1.2,0.6,1.6,1c0.4,0.4,0.6,1,0.6,1.6
		s-0.2,1.1-0.6,1.6c-0.4,0.4-0.9,0.8-1.6,1l2.4,2.6H20.3z M19.7,9.4C19.3,9.2,18.7,9,18,9h-2v2.9h2c0.7,0,1.3-0.1,1.7-0.4
		c0.4-0.2,0.6-0.6,0.6-1.1C20.3,10,20.1,9.7,19.7,9.4z"/>
	<path class="st0" d="M27.5,15.3c-0.9-0.4-1.6-0.9-2.1-1.5s-0.8-1.4-0.8-2.2s0.3-1.5,0.8-2.2s1.2-1.2,2.1-1.5c0.9-0.4,1.9-0.6,3-0.6
		c1.1,0,2.1,0.2,3,0.6s1.6,0.9,2.1,1.5c0.5,0.6,0.8,1.4,0.8,2.2s-0.3,1.5-0.8,2.2c-0.5,0.6-1.2,1.2-2.1,1.5c-0.9,0.4-1.9,0.6-3,0.6
		C29.4,15.8,28.4,15.7,27.5,15.3z M32.3,13.9c0.5-0.2,0.9-0.5,1.2-0.9c0.3-0.4,0.4-0.9,0.4-1.4s-0.1-1-0.4-1.4
		c-0.3-0.4-0.7-0.7-1.2-0.9S31.2,9,30.6,9c-0.6,0-1.2,0.1-1.7,0.3c-0.5,0.2-0.9,0.5-1.2,0.9c-0.3,0.4-0.4,0.9-0.4,1.4s0.1,1,0.4,1.4
		c0.3,0.4,0.7,0.7,1.2,0.9c0.5,0.2,1.1,0.3,1.7,0.3C31.2,14.2,31.8,14.1,32.3,13.9z"/>
	<path class="st0" d="M41.4,9v2.2h5v1.5h-5v3h-2.5V7.5h8.1V9H41.4z"/>
	<path class="st0" d="M49.4,7.5h2.5v8.2h-2.5V7.5z"/>
	<path class="st0" d="M57.3,9h-3.4V7.5h9.4V9h-3.4v6.7h-2.5V9z"/>
	<path class="st0" d="M81.2,7.5l-3.5,8.2H75l-2.4-5.6l-2.4,5.6h-2.7L64,7.5h2.6l2.4,5.8l2.5-5.8h2.3l2.5,5.8l2.5-5.8H81.2z"/>
	<path class="st0" d="M90,13.9h-5l-1,1.8h-2.6l4.8-8.2h2.5l4.8,8.2h-2.6L90,13.9z M89.2,12.5l-1.7-3.1l-1.7,3.1H89.2z"/>
	<path class="st0" d="M99.8,12.8v2.9h-2.5v-2.9l-4.2-5.3h2.6l2.9,3.6l2.9-3.6h2.4L99.8,12.8z"/>
</g>
</svg>
