<?xml version="1.0" encoding="utf-8"?>
<!-- Generator: Adobe Illustrator 26.5.0, SVG Export Plug-In . SVG Version: 6.00 Build 0)  -->
<svg version="1.1" id="Слой_1" xmlns="http://www.w3.org/2000/svg" xmlns:xlink="http://www.w3.org/1999/xlink" x="0px" y="0px"
	 viewBox="0 0 800 800" style="enable-background:new 0 0 800 800;" xml:space="preserve">
<style type="text/css">
	.st0{fill-rule:evenodd;clip-rule:evenodd;fill:#FFFFFF;}
</style>
<path class="st0" d="M241.7,79.6C285,70,337.5,66.7,400,66.7S515,70,558.3,79.6c43.7,9.7,80,26.3,107.9,54.2s44.5,64.2,54.2,107.9
	c9.6,43.3,12.9,95.8,12.9,158.3s-3.3,115-12.9,158.3c-9.7,43.7-26.3,80-54.2,107.9s-64.2,44.5-107.9,54.2
	C515,730,462.5,733.3,400,733.3s-115-3.3-158.3-12.9c-43.7-9.7-80-26.3-107.9-54.2S89.3,602,79.6,558.3C70,515,66.7,462.5,66.7,400
	S70,285,79.6,241.7c9.7-43.7,26.3-80,54.2-107.9S198,89.3,241.7,79.6z M400,200c-73.6,0-133.3,59.7-133.3,133.3
	c0,73.6,59.7,133.3,133.3,133.3c73.6,0,133.3-59.7,133.3-133.3C533.3,259.7,473.6,200,400,200z M612.6,576.5
	c11.8,19.2,7.6,44.5-11.4,56.6c-17.2,11-37.4,17.8-57.4,22.2c-36.1,8-82.9,11.3-143.9,11.3c-61,0-107.7-3.3-143.9-11.3
	c-19.6-4.4-39.4-10.9-56.4-21.6c-19.3-12.1-23.5-37.8-11.5-57.1c13.9-22.2,33-39.7,58.7-52.2c39-18.9,90.2-24.5,153-24.5
	c62.6,0,113.7,5.2,152.7,23.5C579.1,535.9,598.6,553.6,612.6,576.5z"/>
</svg>
